<?xml version="1.0" encoding="utf-8"?>
<!-- Generator: Adobe Illustrator 26.3.1, SVG Export Plug-In . SVG Version: 6.00 Build 0)  -->
<svg version="1.1" id="Layer_1" xmlns="http://www.w3.org/2000/svg" xmlns:xlink="http://www.w3.org/1999/xlink" x="0px" y="0px"
	 viewBox="0 0 667.63 137.37" style="enable-background:new 0 0 667.63 137.37;" xml:space="preserve">
<style type="text/css">
	.st0{fill:#010101;}
</style>
<g>
	<g>
		<path class="st0" d="M247.75,80.81c0-16.33-0.22-32.66,0.07-48.98c0.22-12.23,5.71-21.74,16.59-27.7
			c13.18-7.21,33.3-5.16,43.48,7.66c5.92,7.45,7.87,15.98,6.95,25.3c-1.01,10.19-6.36,17.78-14.26,23.89
			c-4.54,3.51-8.95,7.2-13.48,10.72c-1.62,1.26-1.86,2.29-0.68,4.14c10.99,17.24,21.88,34.54,32.81,51.82
			c1.44,2.28,2.62,4.58,0.75,7.12c-2.56,3.5-7.17,3.39-9.63-0.35c-4.47-6.81-8.78-13.71-13.15-20.58
			c-7.54-11.85-15.07-23.7-22.62-35.54c-3.28-5.14-2.83-8.72,1.95-12.63c5.67-4.63,11.49-9.07,17.22-13.63
			c4.66-3.72,7.9-8.35,9.69-14.15c2.19-7.13-1.57-17.89-9.02-22.63c-8.15-5.18-20.08-5.13-27.5,0.56c-5.46,4.19-7.94,9.91-7.96,16.7
			c-0.05,15.49-0.03,30.99-0.04,46.49c0,16.91,0.01,33.82-0.02,50.73c0,1.31-0.15,2.68-0.58,3.9c-0.89,2.58-3.37,3.97-5.88,3.55
			c-2.53-0.43-4.46-2.53-4.67-5.14c-0.07-0.83-0.04-1.66-0.04-2.5c0-16.24,0-32.49,0-48.73C247.74,80.81,247.75,80.81,247.75,80.81z
			"/>
		<path class="st0" d="M515.07,39.63c2.89-1.38,5.18-2.67,7.62-3.59c12.9-4.88,27.45,0.34,34.51,12.34
			c7.8,13.25,3.47,29.64-8.18,37.97c-4.12,2.94-8.1,6.09-12.38,9.32c2.27,2.54,4.38,4.98,6.56,7.36
			c7.25,7.92,14.52,15.82,21.78,23.73c0.45,0.49,0.9,0.98,1.33,1.5c2.07,2.49,2.15,4.86,0.24,6.95c-2.19,2.39-5.41,2.83-7.85,0.9
			c-1.16-0.92-2.11-2.12-3.11-3.23c-8.96-9.96-17.92-19.93-26.85-29.92c-1.16-1.3-2.38-2.62-3.22-4.12c-2.12-3.81-1-8.03,2.66-10.82
			c4.57-3.47,9.18-6.9,13.73-10.39c5.25-4.03,8.38-9.12,7.99-16.01c-0.36-6.5-5.41-12.75-11.52-14.91
			c-10.69-3.79-23.26,3.82-23.3,17.17c-0.06,21.5-0.02,42.99-0.03,64.49c0,1.33,0.02,2.67-0.1,4c-0.23,2.59-2.33,4.65-4.87,4.89
			c-2.59,0.25-4.95-1.34-5.6-3.95c-0.3-1.2-0.45-2.46-0.45-3.7c-0.02-40.74-0.02-81.48-0.01-122.22c0-4.5,1.66-6.84,4.95-7.14
			c3.39-0.31,5.93,1.72,6.01,5.14c0.13,6.08,0.07,12.16,0.08,18.24C515.07,28.75,515.07,33.91,515.07,39.63z"/>
		<path class="st0" d="M441.55,132.15c-1.93,0.97-3.58,1.88-5.3,2.66c-15,6.83-33.17-0.96-38.21-16.46
			c-0.76-2.34-1.2-4.89-1.22-7.35c-0.11-15.66-0.12-31.32-0.04-46.97c0.06-11.52,9.3-22.84,20.45-25.73
			c7.63-1.98,14.63-0.75,21.33,3.12c0.84,0.49,1.73,0.9,3.02,1.56c0.11-1.3,0.26-2.23,0.26-3.17c0.02-10.66,0.01-21.32,0.01-31.98
			c0-1.08-0.01-2.17,0.1-3.24c0.28-2.87,2.02-4.38,5.01-4.43c3.05-0.05,4.78,1.32,5.19,4.22c0.13,0.9,0.1,1.83,0.1,2.74
			c0,41.14,0,82.29,0,123.43c0,0.5,0,1-0.01,1.5c-0.08,3.13-1.35,4.79-3.95,5.19c-3.25,0.5-5.38-0.78-6.34-3.81
			C441.86,133.11,441.76,132.81,441.55,132.15z M407.16,87.57c0,7.33-0.14,14.67,0.04,22c0.17,6.88,3,12.42,9.3,15.72
			c5.86,3.07,11.76,2.8,17.32-0.71c5.72-3.61,7.98-9.19,8-15.74c0.05-13.75,0.06-27.5-0.02-41.24c-0.02-2.47-0.34-5-0.93-7.4
			c-2.42-9.83-14.57-15.28-23.53-10.63c-6.68,3.46-10.04,9.06-10.15,16.51C407.07,73.23,407.16,80.4,407.16,87.57z"/>
		<path class="st0" d="M127.62,42.1c3.57-1.48,6.55-2.95,9.68-3.96c10.89-3.53,24.74,2.29,30.23,12.39c2.61,4.81,3.8,9.9,3.81,15.31
			c0.01,21.41,0.01,42.82-0.02,64.23c0,1.23-0.14,2.5-0.45,3.7c-0.62,2.4-2.52,3.67-5.02,3.58c-2.44-0.1-4.2-1.61-4.58-4.09
			c-0.2-1.31-0.22-2.65-0.22-3.98c-0.01-20.99-0.02-41.99,0-62.98c0-5.57-1.36-10.59-5.8-14.3c-5.22-4.37-11.2-5.57-17.48-2.91
			c-6.4,2.71-9.8,7.94-10.04,14.86c-0.26,7.57-0.11,15.16-0.11,22.74c-0.01,14.41,0,28.82,0,43.24c0,0.83,0.01,1.67-0.05,2.5
			c-0.2,2.98-2.04,4.83-4.88,4.94c-2.85,0.11-5.09-1.82-5.43-4.72c-0.07-0.58-0.04-1.16-0.04-1.75c0-41.4,0-82.81,0-124.21
			c0-4.06,1.58-6.21,4.69-6.47c3.25-0.27,5.44,1.6,5.67,4.87c0.06,0.91,0.04,1.83,0.04,2.75c0,10.41,0,20.83,0,31.24
			C127.62,40.03,127.62,40.99,127.62,42.1z"/>
		<path class="st0" d="M382.01,87.49c0,7.16,0.05,14.33-0.01,21.49c-0.08,9.46-3.53,17.36-11.25,23.07
			c-13.42,9.92-31.27,5.06-38.79-7.89c-7.46-12.85-4.74-26.34,6.98-35.55c9.94-7.81,19.99-15.48,30.16-22.98
			c2.32-1.71,2.53-3.43,1.84-5.75c-2.02-6.81-9.14-12.07-16.16-11.96c-7.37,0.12-14.02,5.45-15.74,12.66
			c-0.33,1.37-0.56,2.77-0.78,4.17c-0.49,3.21-2.46,4.85-5.67,4.65c-2.65-0.16-4.62-2.25-4.65-5.22
			c-0.06-5.77,1.77-11.02,5.15-15.59c6.38-8.63,15.17-12.43,25.72-11.01c9.87,1.33,18.54,8.01,21.54,18.38
			c1.05,3.62,1.45,7.5,1.58,11.28C382.18,73.99,382.01,80.74,382.01,87.49z M371.44,77.68c-0.84,0.41-1.39,0.57-1.82,0.89
			c-8.33,6.22-16.73,12.35-24.94,18.74c-5.71,4.44-7.32,10.38-5.53,17.4c2.36,9.27,13.6,14.77,22.25,10.7
			c7.1-3.34,10.25-9.19,10.29-16.84c0.06-9.33,0.02-18.66,0.01-27.99C371.7,79.72,371.55,78.85,371.44,77.68z"/>
		<path class="st0" d="M102.72,87.38c-0.25,8.98-0.06,18.01-0.85,26.94c-0.92,10.43-9.62,19.32-19.71,22.08
			c-16.9,4.62-35.33-9.22-33.67-28.83c0.57-6.69,3.28-12.66,8.57-16.93C65.6,83.75,74.4,77.18,83.1,70.48
			c2.11-1.62,4.22-3.24,6.33-4.86c2.67-2.05,2.92-2.82,1.95-5.89c-2.19-6.86-9.31-12.02-16.27-11.81
			c-7.55,0.23-13.94,5.52-15.69,13.04c-0.3,1.29-0.5,2.62-0.7,3.93c-0.47,3.03-2.44,4.64-5.55,4.5c-2.6-0.12-4.93-2.1-4.66-4.85
			c0.36-3.76,0.83-7.71,2.31-11.12c3.79-8.77,10.85-13.96,20.15-15.82c10.37-2.08,22.19,3.58,27.51,12.77c2.7,4.66,3.95,9.68,4,15
			c0.07,7.33,0.02,14.66,0.02,21.99C102.56,87.38,102.64,87.38,102.72,87.38z M91.97,77.67c-0.81,0.32-1.15,0.37-1.4,0.56
			c-8.53,6.38-17.14,12.65-25.54,19.19c-5.53,4.31-7.16,10.11-5.5,16.96c2.33,9.62,13.61,15.2,22.46,10.97
			c7.11-3.4,10.13-9.28,10.16-16.92c0.04-9.17,0.01-18.33,0-27.5C92.17,79.97,92.06,79,91.97,77.67z"/>
		<path class="st0" d="M628.62,87.29c0,7.33,0.11,14.66-0.03,21.99c-0.22,11.44-5.19,20.04-15.51,25.36
			c-11.59,5.96-27.77,1.25-34.34-10.04c-6.55-11.26-5.59-23.72,3.2-32.67c4.16-4.24,9.24-7.59,13.98-11.25
			c6.78-5.24,13.6-10.42,20.45-15.55c1.39-1.04,1.79-2.14,1.51-3.84c-1.1-6.57-7.15-12.15-14.52-13.23
			c-6.25-0.91-13.67,3.07-16.39,9.1c-1.01,2.23-1.54,4.74-1.97,7.17c-0.62,3.57-2.47,5.33-5.82,5.07c-2.83-0.22-4.72-2.43-4.6-5.77
			c0.4-11,7.32-21.21,18.62-24.96c13.75-4.56,28.06,2.55,33.08,15.24c1.43,3.62,2.05,7.72,2.24,11.64
			C628.87,72.78,628.62,80.04,628.62,87.29z M618.17,77.52c-0.89,0.46-1.27,0.6-1.58,0.84c-8.52,6.38-17.13,12.62-25.5,19.19
			c-5.5,4.32-7.05,10.14-5.33,16.98c2.4,9.55,13.7,15.02,22.54,10.75c6.98-3.37,10.02-9.18,10.08-16.7
			c0.07-9.4,0.02-18.81,0.01-28.22C618.39,79.57,618.27,78.78,618.17,77.52z"/>
		<path class="st0" d="M0.06,72.57C0.06,53.75,0.2,34.92,0,16.1C-0.1,7.25,7.19,0.14,14.81,0.14c11.16,0.01,22.32-0.12,33.48-0.01
			c3.78,0.04,5.55,2.07,5.41,5.38c-0.13,3.18-2.26,5.14-5.82,5.16c-10,0.04-19.99,0.01-29.99,0.02c-5.12,0.01-7.19,1.99-7.2,7.05
			c-0.03,14.33,0.02,28.65-0.05,42.98c-0.01,1.97,0.69,2.63,2.62,2.61c7.91-0.07,15.83-0.06,23.74,0.01
			c1.38,0.01,2.82,0.29,4.1,0.78c2.11,0.81,2.96,2.64,2.86,4.8c-0.1,2.22-1.84,4.21-3.93,4.61c-1.13,0.22-2.31,0.28-3.47,0.29
			c-7.58,0.02-15.16,0-22.74,0.02c-2.86,0.01-3.14,0.28-3.14,3.16c-0.01,17.33,0,34.65-0.01,51.98c0,0.92,0.02,1.84-0.06,2.75
			c-0.3,3.55-2.42,5.67-5.47,5.51c-2.94-0.15-5.07-2.61-5.08-5.96c-0.01-18.82-0.01-37.65-0.01-56.47
			C0.06,74.07,0.06,73.32,0.06,72.57z"/>
		<path class="st0" d="M185.05,97.08c0-10.75,0.11-21.5-0.03-32.25c-0.15-12.27,8.44-23.53,20.35-26.65
			c13.67-3.58,28.73,4.67,32.29,18.28c0.65,2.47,1.2,5.03,1.33,7.57c0.17,3.34-1.66,5.31-4.49,5.51c-3.21,0.23-4.93-1.16-5.44-4.75
			c-0.73-5.17-2.2-9.9-6.63-13.21c-5.16-3.85-10.76-4.71-16.71-2.28c-6.09,2.49-9.34,7.26-10.14,13.73
			c-0.15,1.23-0.13,2.5-0.13,3.74c-0.01,21,0,42,0,62.99c0,0.92,0.01,1.84-0.05,2.75c-0.22,3.07-2.15,4.85-5.21,4.83
			c-2.84-0.02-5.04-2.08-5.11-5.02c-0.1-3.75-0.03-7.5-0.04-11.25C185.05,113.08,185.05,105.08,185.05,97.08z"/>
		<path class="st0" d="M646.44,62.71c0-18,0-36,0-54c0-0.83-0.01-1.67,0.01-2.5c0.09-3.91,1.82-5.83,5.24-5.81
			c3.37,0.02,5.03,1.8,5.06,5.68c0.06,8.58,0.06,17.17,0.08,25.75c0.05,28,0.08,56,0.18,83.99c0.01,2.23,0.32,4.49,0.76,6.69
			c0.55,2.78,2.52,4.06,5.26,4.57c3.81,0.71,5.63,4.11,4.01,7.25c-1.02,1.96-2.8,2.79-4.94,2.83c-7.38,0.13-13.17-4.33-14.45-11.56
			c-0.74-4.15-1.11-8.42-1.14-12.64C646.36,96.21,646.44,79.46,646.44,62.71z"/>
		<path class="st0" d="M483.73,87.59c0,14.33-0.01,28.66,0,42.99c0,2.15-0.24,4.2-2.14,5.58c-3.36,2.45-7.7,0.63-8.35-3.5
			c-0.12-0.73-0.08-1.5-0.08-2.24c0-28.58-0.01-57.15,0.01-85.73c0-1.08,0.02-2.18,0.25-3.22c0.57-2.51,2.75-4.13,5.26-4.07
			c2.45,0.06,4.52,1.89,4.91,4.46c0.16,1.06,0.13,2.16,0.13,3.24C483.73,59.26,483.73,73.43,483.73,87.59z"/>
		<path class="st0" d="M478.43,17.82c3.42,0.04,6.26,3.17,6.15,6.77c-0.11,3.46-3.06,6.52-6.28,6.53c-3.25,0-6.49-3.34-6.47-6.67
			C471.84,20.75,474.81,17.78,478.43,17.82z"/>
		<path class="st0" d="M478.27,12.79c-3.62-0.02-6.51-2.92-6.45-6.5c0.05-3.34,2.91-6.13,6.26-6.14c3.76-0.01,6.58,2.74,6.51,6.35
			C484.53,10.09,481.79,12.81,478.27,12.79z"/>
	</g>
</g>
</svg>
